<svg width="170" height="170" viewBox="0 0 170 170" fill="none" xmlns="http://www.w3.org/2000/svg">
<circle cx="85" cy="85" r="70" fill="white"/>
<path fill-rule="evenodd" clip-rule="evenodd" d="M85 170C131.944 170 170 131.944 170 85C170 38.0558 131.944 0 85 0C38.0558 0 0 38.0558 0 85C0 131.944 38.0558 170 85 170ZM96.0175 51.9H96.6175V27.7H96.0175C95.2508 27.7 94.4841 27.7833 93.7175 27.95C92.9508 28.1167 92.2341 28.4333 91.5675 28.9C90.9342 29.3333 90.4175 29.95 90.0175 30.75C89.6175 31.5167 89.4175 32.5 89.4175 33.7V45.9C89.4175 47.1 89.6175 48.1 90.0175 48.9C90.4175 49.6667 90.9342 50.2833 91.5675 50.75C92.2341 51.1833 92.9508 51.4833 93.7175 51.65C94.4841 51.8167 95.2508 51.9 96.0175 51.9ZM99.0175 35.7C98.6175 36.4667 98.4175 37.45 98.4175 38.65V63.95H99.0175C99.7508 63.95 100.501 63.8667 101.267 63.7C102.067 63.5333 102.784 63.2333 103.417 62.8C104.084 62.3333 104.617 61.7167 105.017 60.95C105.417 60.15 105.617 59.15 105.617 57.95V32.65H105.017C104.251 32.65 103.484 32.7333 102.717 32.9C101.951 33.0667 101.234 33.3833 100.567 33.85C99.9342 34.2833 99.4175 34.9 99.0175 35.7ZM113.867 44.95V44.85H107.217V52.05C109.117 51.9833 110.701 51.3667 111.967 50.2C113.234 49 113.867 47.25 113.867 44.95ZM98.1427 109.609H82.4704L59.3027 79.6277L53.9366 79.8833V99.1329C53.9366 100.836 54.0218 102.228 54.1922 103.307C54.4193 104.385 54.8452 105.266 55.4698 105.947C56.0944 106.572 56.9745 107.026 58.1102 107.31C59.2459 107.537 60.7507 107.707 62.6245 107.821V109.609H35.7091V107.821C37.5262 107.65 38.9741 107.423 40.053 107.139C41.1887 106.855 42.0405 106.373 42.6083 105.691C43.1761 105.01 43.5452 104.073 43.7156 102.881C43.8859 101.631 43.9711 99.9847 43.9711 97.9404V55.8638C43.9711 54.1603 43.8859 52.7975 43.7156 51.7754C43.5452 50.6965 43.1761 49.8447 42.6083 49.2201C42.0405 48.5955 41.1887 48.1412 40.053 47.8573C38.9741 47.5734 37.5262 47.3462 35.7091 47.1759V45.2169H62.5393C67.3092 45.2169 71.5679 45.8699 75.3157 47.1759C79.1202 48.4251 81.9309 50.1286 83.748 52.2864C84.9405 53.5924 85.8206 55.1256 86.3885 56.8859C86.9563 58.5894 87.2402 60.4349 87.2402 62.4223C87.2402 66.8514 85.849 70.3436 83.0666 72.8989C80.341 75.4541 75.8835 77.3564 69.6941 78.6056L89.7103 103.307C91.0731 104.896 92.3507 106.004 93.5432 106.628C94.7924 107.253 96.3256 107.65 98.1427 107.821V109.609ZM53.9366 76.3059C56.208 76.2491 58.167 76.1639 59.8137 76.0504C61.5172 75.9368 62.9936 75.7664 64.2429 75.5393C65.5489 75.2554 66.7413 74.9147 67.8202 74.5172C68.8991 74.1197 70.0064 73.6087 71.1421 72.984C72.9024 72.0187 74.2652 70.5991 75.2305 68.7253C76.1958 66.7946 76.6785 64.6085 76.6785 62.1668C76.6785 57.5673 75.2305 54.2171 72.3345 52.1161C69.4953 49.9583 64.9526 48.8794 58.7064 48.8794C56.7758 48.8794 55.4982 49.1349 54.8736 49.646C54.2489 50.1003 53.9366 51.0088 53.9366 52.3716V76.3059ZM123.708 90.0098H126.093L123.964 69.3122H121.92C121.465 71.47 120.443 72.5489 118.853 72.5489C118.342 72.5489 117.718 72.4637 116.98 72.2934C116.241 72.123 115.418 71.8391 114.51 71.4416C112.692 70.7602 110.904 70.2491 109.143 69.9084C107.44 69.511 105.736 69.3122 104.033 69.3122C102.159 69.3122 100.257 69.6813 98.3262 70.4195C96.3955 71.1009 94.6352 72.0946 93.0453 73.4006C89.2976 76.4102 87.4237 80.6122 87.4237 86.0066C87.4237 87.9372 87.7076 89.7259 88.2755 91.3727C88.8433 93.0194 89.7235 94.6093 90.9159 96.1425C92.1652 97.6756 93.7551 99.152 95.6857 100.572C97.6164 101.991 99.9445 103.411 102.67 104.83C106.134 106.761 109.087 108.692 111.528 110.622C114.027 112.553 115.844 114.427 116.98 116.244C117.434 116.925 117.775 117.749 118.002 118.714C118.286 119.679 118.428 120.787 118.428 122.036C118.428 125.272 117.32 127.885 115.106 129.872C112.948 131.859 110.08 132.853 106.503 132.853C102.074 132.853 98.2978 131.49 95.1747 128.765C92.0516 125.982 89.2692 121.61 86.8275 115.648H84.6129L87.5089 136.26H89.6383C89.6951 135.352 89.979 134.585 90.49 133.96C91.0011 133.336 91.6257 133.023 92.3639 133.023C92.8749 133.023 93.528 133.137 94.3229 133.364C95.1179 133.534 95.998 133.79 96.9634 134.131C98.7804 134.926 100.654 135.494 102.585 135.834C104.516 136.175 106.475 136.345 108.462 136.345C111.244 136.345 113.856 135.891 116.298 134.982C118.74 134.074 120.841 132.825 122.601 131.235C124.361 129.645 125.753 127.771 126.775 125.613C127.797 123.455 128.308 121.127 128.308 118.629C128.308 114.654 126.86 110.991 123.964 107.641C121.125 104.291 116.469 100.856 109.995 97.3349C104.941 94.5525 101.307 91.9973 99.0928 89.6691C96.8782 87.341 95.7709 84.8425 95.7709 82.1737C95.7709 79.4481 96.6795 77.2903 98.4965 75.7004C100.37 74.1104 102.812 73.3155 105.822 73.3155C110.364 73.3155 114.339 75.1041 117.746 78.6815C118.484 79.4765 119.137 80.2431 119.705 80.9812C120.273 81.6627 120.784 82.4576 121.238 83.3662C121.749 84.2179 122.175 85.1832 122.516 86.2621C122.913 87.341 123.311 88.5903 123.708 90.0098Z" fill="url(#paint0_linear_3_380)"/>
<defs>
<linearGradient id="paint0_linear_3_380" x1="147" y1="11" x2="20.7051" y2="127.5" gradientUnits="userSpaceOnUse">
<stop stop-color="#275797"/>
<stop offset="0.34" stop-color="#00275A"/>
<stop offset="0.72" stop-color="#275797"/>
<stop offset="1" stop-color="#073A7C"/>
</linearGradient>
</defs>
</svg>
